<svg width="52" height="45" viewBox="0 0 52 45" fill="none" xmlns="http://www.w3.org/2000/svg">
<path fill-rule="evenodd" clip-rule="evenodd" d="M32.0657 16.5895C31.8008 17.1106 31.8008 17.7925 31.8008 19.1563V25.0012C31.8008 26.365 31.8008 27.0469 32.0657 27.568C32.2994 28.0262 32.6722 28.3985 33.1305 28.6318C33.6517 28.8977 34.3335 28.8977 35.6973 28.8977H47.387C48.7508 28.8977 49.4327 28.8977 49.9539 28.6318C50.4119 28.3984 50.7842 28.026 51.0177 27.568C51.2836 27.0469 51.2836 26.365 51.2836 25.0012V19.1563C51.2836 17.7925 51.2836 17.1106 51.0177 16.5895C50.7844 16.1311 50.412 15.7584 49.9539 15.5247C49.4327 15.2598 48.7508 15.2598 47.387 15.2598H35.6973C34.3335 15.2598 33.6517 15.2598 33.1305 15.5247C32.672 15.7583 32.2993 16.131 32.0657 16.5895ZM34.3793 17.208H48.7051C48.8096 17.2079 48.9115 17.2415 48.9955 17.3037C49.0796 17.3659 49.1414 17.4536 49.1717 17.5537C49.2021 17.6537 49.1995 17.7609 49.1642 17.8594C49.1289 17.9579 49.0629 18.0423 48.9759 18.1004L42.0838 22.71C41.9235 22.8172 41.735 22.8745 41.5422 22.8745C41.3494 22.8745 41.1609 22.8172 41.0006 22.71L34.1085 18.1004C34.0215 18.0423 33.9555 17.9579 33.9202 17.8594C33.8849 17.7609 33.8823 17.6537 33.9127 17.5537C33.943 17.4536 34.0048 17.3659 34.0889 17.3037C34.1729 17.2415 34.2747 17.2079 34.3793 17.208Z" fill="white"/>
</svg>
