<svg width="154" height="45" viewBox="0 0 154 45" fill="none" xmlns="http://www.w3.org/2000/svg">
<path d="M48.2503 28.9074C48.2503 28.9074 51.1544 17.181 51.2627 15.6122L51.2644 15.6105C51.2644 15.4311 51.2814 15.3228 51.2814 15.2314C51.2814 15.0689 51.2627 14.9251 51.2458 14.8523C51.1731 14.6729 51.1003 14.6188 50.975 14.5646C50.7043 14.4749 50.2524 14.6188 50.2524 14.6188C50.2524 14.6188 34.2494 20.3745 33.3287 21.0244C33.1307 21.1496 33.0765 21.241 33.041 21.3307C32.8785 21.7809 33.3659 21.9789 33.3659 21.9789L37.497 23.3328C37.497 23.3328 37.6595 23.3497 37.7136 23.3158C38.6512 22.7201 47.1503 17.3435 47.6377 17.181C47.7274 17.1455 47.7799 17.181 47.7629 17.2165C47.5649 17.9206 40.1862 24.487 40.1862 24.487C40.1862 24.487 40.149 24.5056 40.1303 24.5597L40.1134 24.597V24.6325L39.7343 28.7636C39.7343 29.0157 39.8071 29.5032 40.5094 28.9261C40.6238 28.836 40.7329 28.7394 40.8361 28.6367L40.853 28.6197C41.0586 28.4161 41.2691 28.2175 41.4842 28.024C42.0072 27.5197 42.4946 27.1034 42.8195 26.8157C42.8839 26.7661 42.9444 26.7118 43.0006 26.6532C44.4256 27.6449 45.9402 28.728 46.6087 29.2865C46.7163 29.396 46.8457 29.4816 46.9887 29.5376C47.1316 29.5936 47.2847 29.6187 47.438 29.6115C48.0692 29.5945 48.2503 28.9074 48.2503 28.9074Z" fill="white"/>
<path d="M83.7618 29.6305C90.4771 29.6305 94.1533 23.8399 94.1533 18.8215C94.1533 18.6608 94.1533 18.5001 94.1434 18.3294C94.8618 17.7899 95.4794 17.1243 95.9671 16.3641C95.3114 16.6653 94.6062 16.8662 93.8635 16.9666C94.6319 16.482 95.2039 15.7338 95.4756 14.8576C94.7704 15.2995 93.9891 15.6109 93.1494 15.7816C92.8155 15.3996 92.4057 15.0939 91.947 14.8844C91.4882 14.675 90.991 14.5666 90.488 14.5664C88.4695 14.5664 86.8287 16.2727 86.8287 18.3696C86.8287 18.6709 86.8673 18.9521 86.9256 19.2333C83.8953 19.0826 81.2033 17.5571 79.3993 15.2594C79.0745 15.844 78.9047 16.5043 78.9068 17.1755C78.9068 18.4911 79.5536 19.6551 80.5288 20.337C79.9491 20.317 79.3828 20.1551 78.8781 19.865V19.9152C78.8781 21.753 80.1421 23.2976 81.8016 23.639C81.493 23.7294 81.1746 23.7696 80.8363 23.7696C80.6049 23.7696 80.3735 23.7495 80.152 23.6993C80.6148 25.2147 81.9658 26.3084 83.567 26.3385C82.2836 27.3923 80.6828 27.9666 79.0324 27.9654C78.7426 27.9654 78.444 27.9554 78.1641 27.9152C79.8225 29.0353 81.7701 29.6321 83.7618 29.6305Z" fill="white"/>
<path d="M137.522 15.8165C136.302 15.228 135.014 14.8081 133.69 14.5675C133.678 14.5651 133.666 14.5667 133.654 14.5722C133.643 14.5777 133.634 14.5868 133.628 14.5981C133.463 14.9074 133.28 15.3096 133.152 15.6268C131.725 15.3993 130.273 15.3993 128.846 15.6268C128.702 15.2751 128.541 14.9321 128.361 14.5991C128.355 14.5882 128.346 14.5794 128.335 14.5739C128.324 14.5685 128.312 14.5666 128.3 14.5685C126.976 14.8083 125.688 15.2278 124.468 15.8165C124.457 15.8209 124.448 15.8289 124.441 15.8392C122 19.6662 121.332 23.4003 121.66 27.087C121.661 27.096 121.664 27.1048 121.668 27.1128C121.672 27.1208 121.678 27.1278 121.685 27.1334C123.106 28.2386 124.696 29.0823 126.387 29.6284C126.399 29.6322 126.411 29.6321 126.423 29.628C126.435 29.6239 126.445 29.6161 126.453 29.6057C126.815 29.0859 127.138 28.5385 127.415 27.9634C127.419 27.9555 127.421 27.9469 127.421 27.938C127.422 27.9292 127.42 27.9203 127.417 27.9121C127.414 27.9039 127.409 27.8964 127.403 27.8903C127.397 27.8842 127.39 27.8794 127.382 27.8765C126.875 27.6725 126.383 27.4267 125.913 27.1413C125.905 27.1361 125.897 27.1288 125.892 27.12C125.887 27.1112 125.884 27.1011 125.883 27.0908C125.883 27.0804 125.884 27.0701 125.888 27.0606C125.892 27.0512 125.899 27.0429 125.906 27.0366C126.005 26.9585 126.104 26.8785 126.198 26.7965C126.207 26.7891 126.217 26.7844 126.228 26.7828C126.239 26.7812 126.25 26.7829 126.26 26.7876C129.341 28.2648 132.678 28.2648 135.723 26.7876C135.733 26.7826 135.744 26.7806 135.755 26.782C135.766 26.7834 135.777 26.7881 135.785 26.7955C135.879 26.8775 135.977 26.9585 136.077 27.0366C136.085 27.0428 136.091 27.0509 136.096 27.0602C136.1 27.0696 136.102 27.0799 136.101 27.0903C136.101 27.1006 136.098 27.1107 136.093 27.1196C136.088 27.1285 136.081 27.1359 136.072 27.1413C135.603 27.4289 135.115 27.6719 134.603 27.8755C134.595 27.8787 134.588 27.8836 134.582 27.8898C134.576 27.8961 134.571 27.9037 134.568 27.912C134.565 27.9203 134.564 27.9291 134.564 27.938C134.565 27.9469 134.567 27.9555 134.571 27.9634C134.853 28.5385 135.176 29.0849 135.531 29.6037C135.538 29.6146 135.548 29.6229 135.56 29.6273C135.572 29.6318 135.585 29.6322 135.597 29.6284C137.291 29.0842 138.884 28.2404 140.307 27.1334C140.314 27.1281 140.32 27.1213 140.324 27.1135C140.329 27.1056 140.331 27.0969 140.332 27.088C140.725 22.8252 139.674 19.1227 137.548 15.8392C137.542 15.8288 137.533 15.8207 137.522 15.8165ZM127.875 24.842C126.948 24.842 126.183 23.9477 126.183 22.8499C126.183 21.7531 126.933 20.8589 127.875 20.8589C128.826 20.8589 129.583 21.76 129.568 22.8499C129.568 23.9477 128.819 24.842 127.875 24.842ZM134.133 24.842C133.204 24.842 132.441 23.9477 132.441 22.8499C132.441 21.7531 133.19 20.8589 134.133 20.8589C135.083 20.8589 135.84 21.76 135.825 22.8499C135.825 23.9477 135.083 24.842 134.133 24.842Z" fill="white"/>
</svg>
