<svg width="238" height="244" viewBox="0 0 238 244" fill="none" xmlns="http://www.w3.org/2000/svg">
<g filter="url(#filter0_d_86_1710)">
<path d="M115.382 64.6469C116.635 61.0823 121.677 61.0823 122.93 64.6469L127.109 76.5361C132.397 91.5787 143.847 103.654 158.587 109.734L169.167 114.098C172.467 115.459 172.467 120.132 169.167 121.493L158.587 125.857C143.847 131.937 132.397 144.012 127.109 159.055L122.93 170.944C121.677 174.508 116.635 174.508 115.382 170.944L111.203 159.055C105.915 144.012 94.4653 131.937 79.725 125.857L69.1449 121.493C65.8452 120.132 65.8452 115.459 69.1449 114.098L79.725 109.734C94.4653 103.654 105.915 91.5787 111.203 76.5361L115.382 64.6469Z" fill="url(#paint0_linear_86_1710)"/>
<path d="M115.854 64.8127C116.95 61.6937 121.361 61.6937 122.458 64.8127L126.637 76.7019C131.972 91.8788 143.524 104.062 158.396 110.196L168.976 114.56C171.864 115.751 171.864 119.84 168.976 121.031L158.396 125.395C143.524 131.529 131.972 143.712 126.637 158.889L122.458 170.778C121.361 173.897 116.95 173.897 115.854 170.778L111.675 158.889C106.339 143.712 94.7876 131.529 79.9156 125.395L69.3355 121.031C66.4483 119.84 66.4483 115.751 69.3355 114.56L79.9156 110.196C94.7876 104.062 106.339 91.8788 111.675 76.7019L115.854 64.8127Z" stroke="#B557FA"/>
</g>
<defs>
<filter id="filter0_d_86_1710" x="0.970108" y="0.273514" width="236.372" height="243.044" filterUnits="userSpaceOnUse" color-interpolation-filters="sRGB">
<feFlood flood-opacity="0" result="BackgroundImageFix"/>
<feColorMatrix in="SourceAlpha" type="matrix" values="0 0 0 0 0 0 0 0 0 0 0 0 0 0 0 0 0 0 127 0" result="hardAlpha"/>
<feOffset dy="4"/>
<feGaussianBlur stdDeviation="32.85"/>
<feComposite in2="hardAlpha" operator="out"/>
<feColorMatrix type="matrix" values="0 0 0 0 0.545098 0 0 0 0 0.164706 0 0 0 0 0.827451 0 0 0 1 0"/>
<feBlend mode="normal" in2="BackgroundImageFix" result="effect1_dropShadow_86_1710"/>
<feBlend mode="normal" in="SourceGraphic" in2="effect1_dropShadow_86_1710" result="shape"/>
</filter>
<linearGradient id="paint0_linear_86_1710" x1="119.156" y1="53.9121" x2="119.156" y2="168.875" gradientUnits="userSpaceOnUse">
<stop stop-color="#B557FA"/>
<stop offset="1" stop-color="#6C12AF"/>
</linearGradient>
</defs>
</svg>
